<svg width="47" height="30" viewBox="0 0 47 30" fill="none" xmlns="http://www.w3.org/2000/svg">
<path d="M17.1191 16.0908H11.1191V26.0908H17.1191V29.0908H0.119141V13.0908H17.1191V16.0908ZM35.1982 3.125H21.165V5.26758L24.8291 10.543H24.9004V4.81836H25.7666V12.0908H24.915L21.165 6.68848V12.9541H34.29V16.0791H21.165V17.8184H25.3887V18.5996H21.8809V21.0566H25.1621V21.8379H21.8809V24.3096H25.4463V25.0908H21.165V25.9658H35.4258V29.0908H17.6416V25.0908H17.3184L14.79 21.71L13.8809 22.7324V25.0908H13V17.8184H13.8809V21.4258H13.9658L17.2324 17.8184H17.6416V0H35.1982V3.125ZM46.1191 29.0908H36.1191V26.0908H46.1191V29.0908ZM29.4336 17.8184C30.0041 17.8184 30.4708 17.921 30.833 18.127C31.1975 18.3305 31.4674 18.6062 31.6426 18.9541C31.8178 19.3021 31.9053 19.6907 31.9053 20.1191C31.9053 20.5475 31.8176 20.9368 31.6426 21.2871C31.4698 21.6375 31.2021 21.9176 30.8398 22.126C30.4777 22.3318 30.0138 22.4345 29.4482 22.4346H27.8574V25.0908H26.9766V17.8184H29.4336ZM37.7129 18.5996H34.2051V21.0566H37.4863V21.8379H34.2051V24.3096H37.7705V25.0908H33.3242V17.8184H37.7129V18.5996ZM41.7578 17.8184C42.326 17.8184 42.7926 17.9152 43.1572 18.1094C43.5218 18.3011 43.7916 18.5652 43.9668 18.9014C44.1419 19.2374 44.2294 19.6196 44.2295 20.0479C44.2295 20.4764 44.142 20.857 43.9668 21.1885C43.7916 21.5197 43.5231 21.7804 43.1611 21.9697C43.0707 22.0164 42.9731 22.0558 42.8701 22.0908L44.5137 25.0908H43.4912L41.9561 22.2451C41.8961 22.2474 41.8349 22.25 41.7725 22.25H40.1816V25.0908H39.3008V17.8184H41.7578ZM15.3291 21.0996L17.6416 24.1201V18.6152L15.3291 21.0996ZM27.8574 21.6533H29.4199C29.8102 21.6533 30.1237 21.586 30.3604 21.4512C30.5971 21.3162 30.7694 21.1339 30.876 20.9043C30.9849 20.6723 31.0391 20.4103 31.0391 20.1191C31.0391 19.828 30.9848 19.5675 30.876 19.3379C30.7695 19.1083 30.5965 18.9281 30.3574 18.7979C30.1183 18.6653 29.8006 18.5996 29.4053 18.5996H27.8574V21.6533ZM40.1816 21.4541H41.7441C42.1322 21.4541 42.445 21.3978 42.6816 21.2842C42.9206 21.1705 43.0937 21.0091 43.2002 20.8008C43.309 20.5902 43.3633 20.3389 43.3633 20.0479C43.3632 19.757 43.3089 19.5028 43.2002 19.2852C43.0913 19.0674 42.9168 18.8986 42.6777 18.7803C42.4386 18.6596 42.1224 18.5996 41.7295 18.5996H40.1816V21.4541ZM46.1191 16.0908H35.1191V13.0908H40.1191V3.09082H36.1191V0.0908203H46.1191V16.0908ZM29.9014 4.71875C30.3701 4.71876 30.7868 4.80263 31.1514 4.9707C31.5158 5.13637 31.8045 5.36365 32.0176 5.65234C32.233 5.94117 32.3466 6.26977 32.3584 6.63672H31.5068C31.4642 6.2769 31.2913 5.99671 30.9883 5.79785C30.6853 5.59901 30.3133 5.50003 29.873 5.5C29.5511 5.5 29.2688 5.55208 29.0273 5.65625C28.7884 5.7604 28.6017 5.90374 28.4668 6.08594C28.3343 6.26816 28.2676 6.47513 28.2676 6.70703C28.2676 6.90116 28.3139 7.06833 28.4062 7.20801C28.5009 7.34532 28.6218 7.4604 28.7686 7.55273C28.9153 7.64265 29.0696 7.71721 29.2305 7.77637C29.3913 7.83311 29.539 7.87956 29.6738 7.91504L30.4131 8.11328C30.6024 8.16299 30.8131 8.2318 31.0449 8.31934C31.2792 8.40689 31.5029 8.52633 31.7158 8.67773C31.9313 8.82688 32.1093 9.01953 32.249 9.25391C32.3885 9.48815 32.458 9.77563 32.458 10.1162C32.458 10.5091 32.3553 10.8645 32.1494 11.1816C31.9458 11.4989 31.6469 11.7515 31.2539 11.9385C30.8634 12.1254 30.3886 12.2188 29.8301 12.2188C29.3095 12.2187 28.8586 12.1348 28.4775 11.9668C28.0988 11.7987 27.7998 11.5643 27.582 11.2637C27.3666 10.963 27.2452 10.6135 27.2168 10.2158H28.126C28.1496 10.4903 28.2415 10.7176 28.4023 10.8975C28.5656 11.075 28.772 11.2073 29.0205 11.2949C29.2714 11.3801 29.5413 11.4228 29.8301 11.4229C30.1661 11.4229 30.4679 11.3686 30.7354 11.2598C31.0029 11.1485 31.2148 10.9943 31.3711 10.7979C31.5272 10.5991 31.6054 10.3675 31.6055 10.1025C31.6055 9.86106 31.5383 9.66421 31.4033 9.5127C31.2685 9.36128 31.0911 9.23822 30.8711 9.14355C30.651 9.04888 30.4128 8.96554 30.1572 8.89453L29.2617 8.63867C28.6939 8.47536 28.2444 8.24232 27.9131 7.93945C27.5817 7.63644 27.4151 7.24002 27.415 6.75C27.415 6.3428 27.5259 5.9876 27.7461 5.68457C27.9686 5.37928 28.2667 5.14266 28.6406 4.97461C29.017 4.80415 29.4374 4.71875 29.9014 4.71875ZM4.38867 5.59961H0.880859V8.05664H4.16211V8.83789H0.880859V11.3096H4.44629V12.0908H0V4.81836H4.38867V5.59961ZM8.27734 7.84375H8.33398L10.209 4.81836H11.2461L8.95898 8.4541L11.2461 12.0908H10.209L8.33398 9.12207H8.27734L6.40234 12.0908H5.36523L7.70898 8.4541L5.36523 4.81836H6.40234L8.27734 7.84375ZM14.8496 4.81836C15.4202 4.81836 15.8868 4.92099 16.249 5.12695C16.6135 5.3305 16.8834 5.60623 17.0586 5.9541C17.2338 6.30209 17.3213 6.69067 17.3213 7.11914C17.3213 7.5475 17.2337 7.93682 17.0586 8.28711C16.8858 8.63749 16.6181 8.91764 16.2559 9.12598C15.8937 9.3318 15.4298 9.43454 14.8643 9.43457H13.2734V12.0908H12.3926V4.81836H14.8496ZM38.2949 5.59961H34.7871V8.05664H38.0684V8.83789H34.7871V11.3096H38.3525V12.0908H33.9062V4.81836H38.2949V5.59961ZM13.2734 8.65332H14.8359C15.2262 8.65328 15.5397 8.58595 15.7764 8.45117C16.0131 8.31624 16.1855 8.13391 16.292 7.9043C16.4009 7.67229 16.4551 7.41033 16.4551 7.11914C16.4551 6.82803 16.4009 6.56748 16.292 6.33789C16.1855 6.10829 16.0125 5.92805 15.7734 5.79785C15.5343 5.66528 15.2166 5.59961 14.8213 5.59961H13.2734V8.65332ZM17.1191 3.09082H0.119141V0.0908203H17.1191V3.09082Z" fill="white"/>
</svg>
